<mxfile host="app.diagrams.net">
  <diagram name="Use Case Diagram" id="use-case-diagram">
    <mxGraphModel dx="1122" dy="794" grid="1" gridSize="10">
      <root>
        <mxCell id="0"/>
        <mxCell id="1" parent="0"/>
        <mxCell id="2" value="User" style="shape=actor;verticalLabelPosition=bottom;verticalAlign=top;" vertex="1" parent="1">
          <mxGeometry x="60" y="180" width="30" height="60" as="geometry"/>
        </mxCell>
        <mxCell id="3" value="Login" style="ellipse;whiteSpace=wrap;aspect=fixed;" vertex="1" parent="1">
          <mxGeometry x="200" y="100" width="120" height="60" as="geometry"/>
        </mxCell>
        <mxCell id="4" value="Sign Up" style="ellipse;whiteSpace=wrap;aspect=fixed;" vertex="1" parent="1">
          <mxGeometry x="200" y="180" width="120" height="60" as="geometry"/>
        </mxCell>
        <mxCell id="5" value="View Profile" style="ellipse;whiteSpace=wrap;aspect=fixed;" vertex="1" parent="1">
          <mxGeometry x="200" y="260" width="120" height="60" as="geometry"/>
        </mxCell>
        <mxCell id="6" value="Pay Bills" style="ellipse;whiteSpace=wrap;aspect=fixed;" vertex="1" parent="1">
          <mxGeometry x="200" y="340" width="120" height="60" as="geometry"/>
        </mxCell>
        <mxCell id="7" style="endArrow=none;" edge="1" parent="1" source="2" target="3"><mxGeometry relative="1" as="geometry"/></mxCell>
        <mxCell id="8" style="endArrow=none;" edge="1" parent="1" source="2" target="4"><mxGeometry relative="1" as="geometry"/></mxCell>
        <mxCell id="9" style="endArrow=none;" edge="1" parent="1" source="2" target="5"><mxGeometry relative="1" as="geometry"/></mxCell>
        <mxCell id="10" style="endArrow=none;" edge="1" parent="1" source="2" target="6"><mxGeometry relative="1" as="geometry"/></mxCell>
      </root>
    </mxGraphModel>
  </diagram>

  <diagram name="Sequence Diagram" id="sequence-diagram">
    <mxGraphModel dx="1228" dy="781" grid="1" gridSize="10">
      <root>
        <mxCell id="0"/>
        <mxCell id="1" parent="0"/>
        <mxCell id="11" value="User" style="swimlane;horizontal=0;" vertex="1" parent="1">
          <mxGeometry x="20" y="20" width="100" height="300" as="geometry"/>
        </mxCell>
        <mxCell id="12" value="App UI" style="swimlane;horizontal=0;" vertex="1" parent="1">
          <mxGeometry x="140" y="20" width="100" height="300" as="geometry"/>
        </mxCell>
        <mxCell id="13" value="Backend" style="swimlane;horizontal=0;" vertex="1" parent="1">
          <mxGeometry x="260" y="20" width="100" height="300" as="geometry"/>
        </mxCell>
        <mxCell id="14" value="Database" style="swimlane;horizontal=0;" vertex="1" parent="1">
          <mxGeometry x="380" y="20" width="100" height="300" as="geometry"/>
        </mxCell>
        <mxCell id="15" value="Select Pay Bills" style="endArrow=block;" edge="1" parent="1" source="11" target="12">
          <mxGeometry relative="1" as="geometry"/>
        </mxCell>
        <mxCell id="16" value="Fetch Bills" style="endArrow=block;" edge="1" parent="1" source="12" target="13">
          <mxGeometry relative="1" as="geometry"/>
        </mxCell>
        <mxCell id="17" value="Retrieve Data" style="endArrow=block;" edge="1" parent="1" source="13" target="14">
          <mxGeometry relative="1" as="geometry"/>
        </mxCell>
        <mxCell id="18" value="Return Data" style="dashed;endArrow=block;" edge="1" parent="1" source="14" target="13">
          <mxGeometry relative="1" as="geometry"/>
        </mxCell>
        <mxCell id="19" value="Return Bills" style="dashed;endArrow=block;" edge="1" parent="1" source="13" target="12">
          <mxGeometry relative="1" as="geometry"/>
        </mxCell>
        <mxCell id="20" value="Confirm Payment" style="endArrow=block;" edge="1" parent="1" source="11" target="12">
          <mxGeometry relative="1" as="geometry"/>
        </mxCell>
        <mxCell id="21" value="Send Payment" style="endArrow=block;" edge="1" parent="1" source="12" target="13">
          <mxGeometry relative="1" as="geometry"/>
        </mxCell>
        <mxCell id="22" value="Update Records" style="endArrow=block;" edge="1" parent="1" source="13" target="14">
          <mxGeometry relative="1" as="geometry"/>
        </mxCell>
        <mxCell id="23" value="Confirmation" style="dashed;endArrow=block;" edge="1" parent="1" source="13" target="12">
          <mxGeometry relative="1" as="geometry"/>
        </mxCell>
      </root>
    </mxGraphModel>
  </diagram>

  <diagram name="Activity Diagram" id="activity-diagram">
    <mxGraphModel dx="1228" dy="781" grid="1" gridSize="10">
      <root>
        <mxCell id="0"/>
        <mxCell id="1" parent="0"/>
        <mxCell id="24" style="ellipse;fillColor=black;" vertex="1" parent="1">
          <mxGeometry x="40" y="20" width="20" height="20" as="geometry"/>
        </mxCell>
        <mxCell id="25" value="Login / Sign Up" style="rounded=1;whiteSpace=wrap;" vertex="1" parent="1">
          <mxGeometry x="20" y="60" width="100" height="40" as="geometry"/>
        </mxCell>
        <mxCell id="26" value="Home Screen" style="rounded=1;whiteSpace=wrap;" vertex="1" parent="1">
          <mxGeometry x="20" y="120" width="100" height="40" as="geometry"/>
        </mxCell>
        <mxCell id="27" value="Choose Action" style="rhombus;" vertex="1" parent="1">
          <mxGeometry x="20" y="180" width="60" height="60" as="geometry"/>
        </mxCell>
        <mxCell id="28" value="Send Money" style="rounded=1;whiteSpace=wrap;" vertex="1" parent="1">
          <mxGeometry x="120" y="180" width="100" height="40" as="geometry"/>
        </mxCell>
        <mxCell id="29" value="Pay Bills" style="rounded=1;whiteSpace=wrap;" vertex="1" parent="1">
          <mxGeometry x="120" y="240" width="100" height="40" as="geometry"/>
        </mxCell>
        <mxCell id="30" value="Confirm Payment" style="rounded=1;whiteSpace=wrap;" vertex="1" parent="1">
          <mxGeometry x="120" y="300" width="120" height="40" as="geometry"/>
        </mxCell>
        <mxCell id="31" value="Success Screen" style="rounded=1;whiteSpace=wrap;" vertex="1" parent="1">
          <mxGeometry x="120" y="360" width="120" height="40" as="geometry"/>
        </mxCell>
        <mxCell id="32" style="ellipse;whiteSpace=wrap;html=1;fillColor=black;" vertex="1" parent="1">
          <mxGeometry x="140" y="420" width="20" height="20" as="geometry"/>
        </mxCell>
        <mxCell id="33" style="endArrow=block;" edge="1" parent="1" source="24" target="25"><mxGeometry relative="1" as="geometry"/></mxCell>
        <mxCell id="34" style="endArrow=block;" edge="1" parent="1" source="25" target="26"><mxGeometry relative="1" as="geometry"/></mxCell>
        <mxCell id="35" style="endArrow=block;" edge="1" parent="1" source="26" target="27"><mxGeometry relative="1" as="geometry"/></mxCell>
        <mxCell id="36" style="endArrow=block;" edge="1" parent="1" source="27" target="28"><mxGeometry relative="1" as="geometry"/></mxCell>
        <mxCell id="37" style="endArrow=block;" edge="1" parent="1" source="27" target="29"><mxGeometry relative="1" as="geometry"/></mxCell>
        <mxCell id="38" style="endArrow=block;" edge="1" parent="1" source="29" target="30"><mxGeometry relative="1" as="geometry"/></mxCell>
        <mxCell id="39" style="endArrow=block;" edge="1" parent="1" source="30" target="31"><mxGeometry relative="1" as="geometry"/></mxCell>
        <mxCell id="40" style="endArrow=block;" edge="1" parent="1" source="31" target="32"><mxGeometry relative="1" as="geometry"/></mxCell>
      </root>
    </mxGraphModel>
  </diagram>
</mxfile>
